<svg width="17" height="21" viewBox="0 0 17 21" fill="none" xmlns="http://www.w3.org/2000/svg">
<path fill-rule="evenodd" clip-rule="evenodd" d="M9.53004 1.5C9.53004 1.23478 9.42468 0.98043 9.23715 0.792893C9.04961 0.605357 8.79526 0.5 8.53004 0.5C8.26482 0.5 8.01047 0.605357 7.82293 0.792893C7.6354 0.98043 7.53004 1.23478 7.53004 1.5V2.25H6.97304C5.90107 2.24993 4.86937 2.65839 4.08796 3.39224C3.30656 4.12608 2.8342 5.13014 2.76704 6.2L2.54604 9.734C2.46177 11.0814 2.00934 12.3799 1.23804 13.488C1.07867 13.7171 0.981298 13.9835 0.955383 14.2613C0.929469 14.5392 0.975897 14.819 1.09015 15.0736C1.20441 15.3281 1.3826 15.5488 1.60741 15.7142C1.83221 15.8795 2.09597 15.9838 2.37304 16.017L5.78004 16.425V17.5C5.78004 18.2293 6.06977 18.9288 6.5855 19.4445C7.10122 19.9603 7.80069 20.25 8.53004 20.25C9.25939 20.25 9.95886 19.9603 10.4746 19.4445C10.9903 18.9288 11.28 18.2293 11.28 17.5V16.425L14.687 16.016C14.9639 15.9827 15.2275 15.8784 15.4522 15.7131C15.6769 15.5478 15.855 15.3273 15.9692 15.0729C16.0834 14.8184 16.1299 14.5388 16.1041 14.2611C16.0783 13.9834 15.9812 13.7171 15.822 13.488C15.0507 12.38 14.5983 11.0815 14.514 9.734L14.293 6.201C14.2261 5.13096 13.7539 4.12665 12.9724 3.3926C12.191 2.65855 11.1592 2.24995 10.087 2.25H9.53004V1.5ZM6.97304 3.75C6.28261 3.74992 5.61811 4.01297 5.11482 4.48561C4.61153 4.95825 4.30729 5.60493 4.26404 6.294L4.04404 9.828C3.94238 11.449 3.39796 13.011 2.47004 14.344C2.45851 14.3606 2.45146 14.3798 2.44958 14.3999C2.44769 14.42 2.45104 14.4403 2.4593 14.4587C2.46755 14.4771 2.48043 14.4931 2.49668 14.505C2.51293 14.517 2.532 14.5246 2.55204 14.527L6.28904 14.976C7.77804 15.154 9.28204 15.154 10.771 14.976L14.508 14.527C14.5281 14.5246 14.5471 14.517 14.5634 14.505C14.5797 14.4931 14.5925 14.4771 14.6008 14.4587C14.609 14.4403 14.6124 14.42 14.6105 14.3999C14.6086 14.3798 14.6016 14.3606 14.59 14.344C13.6625 13.0109 13.1184 11.4489 13.017 9.828L12.796 6.294C12.7528 5.60493 12.4486 4.95825 11.9453 4.48561C11.442 4.01297 10.7775 3.74992 10.087 3.75H6.97304ZM8.53004 18.75C7.84004 18.75 7.28004 18.19 7.28004 17.5V16.75H9.78004V17.5C9.78004 18.19 9.22004 18.75 8.53004 18.75Z" fill="#07020D"/>
</svg>
