<svg width="23" height="22" viewBox="0 0 23 22" fill="none" xmlns="http://www.w3.org/2000/svg">
<path d="M8.20005 12.1C8.49179 12.1 8.77158 11.9842 8.97787 11.7779C9.18416 11.5716 9.30005 11.2918 9.30005 11C9.30005 10.7083 9.18416 10.4285 8.97787 10.2222C8.77158 10.0159 8.49179 9.90005 8.20005 9.90005C7.90831 9.90005 7.62852 10.0159 7.42223 10.2222C7.21594 10.4285 7.10005 10.7083 7.10005 11C7.10005 11.2918 7.21594 11.5716 7.42223 11.7779C7.62852 11.9842 7.90831 12.1 8.20005 12.1ZM9.30005 14.3C9.30005 14.5918 9.18416 14.8716 8.97787 15.0779C8.77158 15.2842 8.49179 15.4 8.20005 15.4C7.90831 15.4 7.62852 15.2842 7.42223 15.0779C7.21594 14.8716 7.10005 14.5918 7.10005 14.3C7.10005 14.0083 7.21594 13.7285 7.42223 13.5222C7.62852 13.3159 7.90831 13.2 8.20005 13.2C8.49179 13.2 8.77158 13.3159 8.97787 13.5222C9.18416 13.7285 9.30005 14.0083 9.30005 14.3ZM11.5 12.1C11.7918 12.1 12.0716 11.9842 12.2779 11.7779C12.4842 11.5716 12.6 11.2918 12.6 11C12.6 10.7083 12.4842 10.4285 12.2779 10.2222C12.0716 10.0159 11.7918 9.90005 11.5 9.90005C11.2083 9.90005 10.9285 10.0159 10.7222 10.2222C10.5159 10.4285 10.4 10.7083 10.4 11C10.4 11.2918 10.5159 11.5716 10.7222 11.7779C10.9285 11.9842 11.2083 12.1 11.5 12.1ZM12.6 14.3C12.6 14.5918 12.4842 14.8716 12.2779 15.0779C12.0716 15.2842 11.7918 15.4 11.5 15.4C11.2083 15.4 10.9285 15.2842 10.7222 15.0779C10.5159 14.8716 10.4 14.5918 10.4 14.3C10.4 14.0083 10.5159 13.7285 10.7222 13.5222C10.9285 13.3159 11.2083 13.2 11.5 13.2C11.7918 13.2 12.0716 13.3159 12.2779 13.5222C12.4842 13.7285 12.6 14.0083 12.6 14.3ZM14.8 12.1C15.0918 12.1 15.3716 11.9842 15.5779 11.7779C15.7842 11.5716 15.9 11.2918 15.9 11C15.9 10.7083 15.7842 10.4285 15.5779 10.2222C15.3716 10.0159 15.0918 9.90005 14.8 9.90005C14.5083 9.90005 14.2285 10.0159 14.0222 10.2222C13.8159 10.4285 13.7 10.7083 13.7 11C13.7 11.2918 13.8159 11.5716 14.0222 11.7779C14.2285 11.9842 14.5083 12.1 14.8 12.1ZM19.2 6.05005C19.2 5.3207 18.9103 4.62123 18.3946 4.10551C17.8789 3.58978 17.1794 3.30005 16.45 3.30005H6.55005C5.8207 3.30005 5.12123 3.58978 4.60551 4.10551C4.08978 4.62123 3.80005 5.3207 3.80005 6.05005V15.95C3.80005 16.6794 4.08978 17.3789 4.60551 17.8946C5.12123 18.4103 5.8207 18.7 6.55005 18.7H16.45C17.1794 18.7 17.8789 18.4103 18.3946 17.8946C18.9103 17.3789 19.2 16.6794 19.2 15.95V6.05005ZM4.90005 7.70005H18.1V15.95C18.1 16.3877 17.9262 16.8073 17.6168 17.1168C17.3073 17.4262 16.8877 17.6 16.45 17.6H6.55005C6.11244 17.6 5.69276 17.4262 5.38332 17.1168C5.07389 16.8073 4.90005 16.3877 4.90005 15.95V7.70005ZM6.55005 4.40005H16.45C16.8877 4.40005 17.3073 4.57389 17.6168 4.88332C17.9262 5.19276 18.1 5.61244 18.1 6.05005V6.60005H4.90005V6.05005C4.90005 5.61244 5.07389 5.19276 5.38332 4.88332C5.69276 4.57389 6.11244 4.40005 6.55005 4.40005Z" fill="#424242"/>
</svg>
