<svg width="18" height="14" viewBox="0 0 18 14" fill="none" xmlns="http://www.w3.org/2000/svg">
<path d="M0.666657 9.08335C0.666657 9.57581 0.763653 10.0634 0.952108 10.5184C1.14056 10.9734 1.41679 11.3868 1.76501 11.735C2.46827 12.4383 3.42209 12.8333 4.41666 12.8333H14.4167C15.155 12.8347 15.8663 12.556 16.4072 12.0534C16.9481 11.5509 17.2782 10.8619 17.3311 10.1255C17.384 9.38912 17.1556 8.66007 16.692 8.08543C16.2285 7.51079 15.5642 7.13333 14.8333 7.02918C14.8415 5.61149 14.333 4.23935 13.4031 3.16926C12.4731 2.09917 11.1852 1.40439 9.78026 1.21478C8.37528 1.02516 6.94933 1.35371 5.76896 2.13899C4.5886 2.92428 3.73462 4.11255 3.36666 5.48168C2.58759 5.70919 1.90331 6.18321 1.41649 6.8326C0.92967 7.48199 0.666566 8.27174 0.666657 9.08335Z" stroke="#095256" stroke-linejoin="round"/>
<path d="M7.33331 7.83333L8.99998 9.5M8.99998 9.5L10.6666 7.83333M8.99998 9.5V4.5" stroke="#095256" stroke-linecap="round" stroke-linejoin="round"/>
</svg>
