<svg width="12" height="7" viewBox="0 0 12 7" fill="none" xmlns="http://www.w3.org/2000/svg">
<path d="M11.7867 6.63833C11.7275 6.78087 11.6143 6.89414 11.4717 6.95333C11.4016 6.98322 11.3263 6.99908 11.25 7H8.33338C8.17867 7 8.0303 6.93854 7.9209 6.82915C7.8115 6.71975 7.75005 6.57138 7.75005 6.41667C7.75005 6.26196 7.8115 6.11358 7.9209 6.00419C8.0303 5.89479 8.17867 5.83333 8.33338 5.83333H9.84421L6.58338 2.5725L4.66421 4.4975C4.60998 4.55218 4.54547 4.59557 4.47438 4.62519C4.4033 4.6548 4.32705 4.67005 4.25005 4.67005C4.17304 4.67005 4.09679 4.6548 4.02571 4.62519C3.95462 4.59557 3.89011 4.55218 3.83588 4.4975L0.335879 0.997499C0.281204 0.943271 0.237808 0.878755 0.208192 0.80767C0.178577 0.736586 0.16333 0.66034 0.16333 0.583333C0.16333 0.506327 0.178577 0.430082 0.208192 0.358997C0.237808 0.287912 0.281204 0.223396 0.335879 0.169168C0.390108 0.114492 0.454625 0.071095 0.525709 0.0414796C0.596794 0.0118647 0.673039 -0.00338221 0.750046 -0.00338221C0.827053 -0.00338221 0.903298 0.0118647 0.974382 0.0414796C1.04547 0.071095 1.10998 0.114492 1.16421 0.169168L4.25005 3.26083L6.16921 1.33583C6.22344 1.28116 6.28796 1.23776 6.35904 1.20815C6.43013 1.17853 6.50637 1.16328 6.58338 1.16328C6.66039 1.16328 6.73663 1.17853 6.80772 1.20815C6.8788 1.23776 6.94332 1.28116 6.99755 1.33583L10.6667 5.01083V3.5C10.6667 3.34529 10.7282 3.19692 10.8376 3.08752C10.947 2.97813 11.0953 2.91667 11.25 2.91667C11.4048 2.91667 11.5531 2.97813 11.6625 3.08752C11.7719 3.19692 11.8334 3.34529 11.8334 3.5V6.41667C11.8325 6.4929 11.8166 6.5682 11.7867 6.63833Z" fill="#BB0000"/>
</svg>
