<svg width="16" height="14" viewBox="0 0 16 14" fill="none" xmlns="http://www.w3.org/2000/svg">
<path fill-rule="evenodd" clip-rule="evenodd" d="M3.30198 0.5H12.698C13.1426 0.5 13.5226 0.5 13.8266 0.538C14.1486 0.578667 14.46 0.67 14.716 0.91C14.976 1.15467 15.0793 1.45933 15.1246 1.776C15.1666 2.06733 15.1666 2.42933 15.1666 2.84267V3.36C15.1666 3.686 15.1666 3.96667 15.1426 4.202C15.116 4.45533 15.0593 4.692 14.922 4.91933C14.7853 5.14533 14.602 5.30933 14.39 5.456C14.1906 5.59467 13.9366 5.738 13.6366 5.90667L11.6753 7.01067C11.2286 7.262 11.0733 7.35267 10.9693 7.44267C10.7313 7.64933 10.5946 7.87933 10.5306 8.16667C10.5033 8.29 10.5 8.44467 10.5 8.91533V10.7367C10.5 11.3373 10.5 11.8473 10.438 12.24C10.3726 12.6567 10.22 13.0567 9.81998 13.3067C9.42865 13.5513 8.99865 13.5287 8.57998 13.4293C8.17665 13.334 7.67998 13.1393 7.08398 12.9067L7.02665 12.884C6.74665 12.7747 6.50265 12.6793 6.30931 12.5793C6.10131 12.472 5.90798 12.3387 5.76065 12.1307C5.61065 11.92 5.55131 11.6947 5.52398 11.464C5.49998 11.254 5.49998 11.002 5.49998 10.7207V8.91533C5.49998 8.44467 5.49731 8.29 5.46931 8.16667C5.40879 7.88282 5.25422 7.62772 5.03065 7.44267C4.92665 7.35267 4.77065 7.262 4.32465 7.01067L2.36331 5.90667C2.06331 5.738 1.80931 5.59467 1.60998 5.456C1.39798 5.30933 1.21465 5.14533 1.07798 4.91933C0.940646 4.692 0.88398 4.45467 0.85798 4.202C0.833313 3.96733 0.833313 3.686 0.833313 3.36V2.84267C0.833313 2.42933 0.833313 2.06733 0.875313 1.776C0.920646 1.45933 1.02398 1.15467 1.28398 0.91C1.53998 0.67 1.85065 0.578667 2.17331 0.538C2.47731 0.5 2.85731 0.5 3.30198 0.5ZM2.29865 1.53067C2.07598 1.55867 2.00531 1.604 1.96865 1.63933C1.93531 1.67 1.89265 1.724 1.86465 1.918C1.83465 2.13 1.83331 2.41933 1.83331 2.87667V3.33667C1.83331 3.69267 1.83331 3.922 1.85198 4.09933C1.86931 4.264 1.89865 4.34333 1.93465 4.40267C1.97131 4.46333 2.03265 4.532 2.17998 4.63467C2.33598 4.74267 2.54865 4.86333 2.87331 5.046L4.81531 6.13933L4.86865 6.16933C5.24198 6.37933 5.49531 6.522 5.68598 6.68733C6.07159 7.01264 6.3388 7.45635 6.44598 7.94933C6.49998 8.194 6.49998 8.46933 6.49998 8.856V10.6953C6.49998 11.01 6.50065 11.2033 6.51798 11.3487C6.53265 11.4807 6.55731 11.5253 6.57531 11.5513C6.59531 11.5793 6.63531 11.6227 6.76798 11.6913C6.90931 11.764 7.10465 11.8407 7.41265 11.9613C8.05331 12.212 8.48465 12.3793 8.81065 12.4567C9.12998 12.5327 9.23531 12.4933 9.28931 12.4593C9.33465 12.4307 9.40465 12.3727 9.45065 12.084C9.49865 11.7793 9.49998 11.3487 9.49998 10.6947V8.856C9.49998 8.46933 9.49998 8.194 9.55465 7.94933C9.66165 7.45643 9.92861 7.01274 10.314 6.68733C10.5046 6.522 10.7586 6.37867 11.1306 6.16933L11.1846 6.13933L13.1266 5.046C13.4513 4.86333 13.664 4.74267 13.82 4.63467C13.9673 4.532 14.0286 4.46333 14.0653 4.40267C14.1013 4.34333 14.1306 4.264 14.1473 4.09933C14.166 3.922 14.1666 3.69267 14.1666 3.336V2.876C14.1666 2.41933 14.1653 2.12933 14.1353 1.918C14.1073 1.724 14.064 1.67 14.032 1.63933C13.9946 1.60467 13.924 1.55867 13.7013 1.53067C13.468 1.50067 13.1513 1.5 12.6666 1.5H3.33331C2.84865 1.5 2.53265 1.50067 2.29865 1.53067Z" fill="#4D4C4C"/>
</svg>
