<svg width="21" height="21" viewBox="0 0 21 21" fill="none" xmlns="http://www.w3.org/2000/svg">
<path d="M14.4574 2.16675H18.2524L18.3357 2.17841L18.4182 2.20175L18.4682 2.22341C18.5349 2.25175 18.5957 2.29425 18.6507 2.34841L18.6841 2.38508L18.7207 2.43258L18.7657 2.50758L18.7982 2.58258L18.8141 2.63591L18.8257 2.68925L18.8332 2.76841V6.54508C18.8332 6.70343 18.773 6.85587 18.6649 6.97157C18.5568 7.08728 18.4088 7.15764 18.2508 7.16844C18.0929 7.17923 17.9367 7.12965 17.8138 7.02972C17.691 6.92979 17.6107 6.78696 17.5891 6.63008L17.5832 6.54508V4.29925L12.2166 9.66591C12.1107 9.77176 11.9705 9.83612 11.8212 9.84728C11.6719 9.85845 11.5236 9.81568 11.4032 9.72675L11.3332 9.66675L8.80824 7.24175L4.06657 11.9826C3.95505 12.0944 3.80533 12.1599 3.64751 12.1658C3.48969 12.1717 3.33548 12.1177 3.21587 12.0146C3.09627 11.9114 3.02014 11.7668 3.0028 11.6099C2.98546 11.4529 3.0282 11.2952 3.12241 11.1684L3.18324 11.0984L8.36657 5.91508C8.4725 5.80936 8.61285 5.74516 8.7621 5.73414C8.91136 5.72313 9.05961 5.76605 9.17991 5.85508L9.24991 5.91508L11.7749 8.34008L16.6982 3.41675H14.4566C14.3057 3.41654 14.16 3.36175 14.0463 3.2625C13.9327 3.16325 13.8588 3.02623 13.8382 2.87675L13.8324 2.79175C13.8324 2.64072 13.8871 2.4948 13.9864 2.38097C14.0856 2.26715 14.2228 2.19312 14.3724 2.17258L14.4574 2.16675ZM3.62491 14.6667C3.79067 14.6667 3.94964 14.7326 4.06685 14.8498C4.18406 14.967 4.24991 15.126 4.24991 15.2917V18.2084C4.24991 18.3742 4.18406 18.5331 4.06685 18.6504C3.94964 18.7676 3.79067 18.8334 3.62491 18.8334C3.45915 18.8334 3.30017 18.7676 3.18296 18.6504C3.06575 18.5331 2.99991 18.3742 2.99991 18.2084V15.2917C2.99991 15.126 3.06575 14.967 3.18296 14.8498C3.30017 14.7326 3.45915 14.6667 3.62491 14.6667ZM8.41657 11.9584C8.41657 11.7927 8.35072 11.6337 8.23351 11.5165C8.1163 11.3993 7.95733 11.3334 7.79157 11.3334C7.62581 11.3334 7.46684 11.3993 7.34963 11.5165C7.23242 11.6337 7.16657 11.7927 7.16657 11.9584V18.2084C7.16657 18.3742 7.23242 18.5331 7.34963 18.6504C7.46684 18.7676 7.62581 18.8334 7.79157 18.8334C7.95733 18.8334 8.1163 18.7676 8.23351 18.6504C8.35072 18.5331 8.41657 18.3742 8.41657 18.2084V11.9584ZM11.9582 13.0001C12.124 13.0001 12.283 13.0659 12.4002 13.1831C12.5174 13.3004 12.5832 13.4593 12.5832 13.6251V18.2084C12.5832 18.3742 12.5174 18.5331 12.4002 18.6504C12.283 18.7676 12.124 18.8334 11.9582 18.8334C11.7925 18.8334 11.6335 18.7676 11.5163 18.6504C11.3991 18.5331 11.3332 18.3742 11.3332 18.2084V13.6251C11.3332 13.4593 11.3991 13.3004 11.5163 13.1831C11.6335 13.0659 11.7925 13.0001 11.9582 13.0001ZM16.7499 9.45842C16.7499 9.29265 16.6841 9.13368 16.5668 9.01647C16.4496 8.89926 16.2907 8.83342 16.1249 8.83342C15.9591 8.83342 15.8002 8.89926 15.683 9.01647C15.5658 9.13368 15.4999 9.29265 15.4999 9.45842V18.2084C15.4999 18.3742 15.5658 18.5331 15.683 18.6504C15.8002 18.7676 15.9591 18.8334 16.1249 18.8334C16.2907 18.8334 16.4496 18.7676 16.5668 18.6504C16.6841 18.5331 16.7499 18.3742 16.7499 18.2084V9.45842Z" fill="#6F6F6F"/>
</svg>
