<svg width="21" height="21" viewBox="0 0 21 21" fill="none" xmlns="http://www.w3.org/2000/svg">
<path d="M2.41101 7.88288C2.78021 6.74205 3.38685 5.69235 4.19101 4.80288C4.2575 4.7294 4.34434 4.67733 4.44048 4.65329C4.53663 4.62926 4.63775 4.63434 4.73101 4.66788L6.64901 5.35388C6.78555 5.40264 6.93106 5.42112 7.07546 5.40805C7.21985 5.39498 7.35968 5.35066 7.48524 5.27818C7.61081 5.20569 7.71911 5.10677 7.80265 4.98826C7.88618 4.86976 7.94294 4.73451 7.96901 4.59188L8.33501 2.58588C8.35268 2.48823 8.39902 2.39805 8.46811 2.32682C8.53721 2.25559 8.62594 2.20653 8.72301 2.18588C9.89454 1.93641 11.1055 1.93641 12.277 2.18588C12.3741 2.20653 12.4628 2.25559 12.5319 2.32682C12.601 2.39805 12.6473 2.48823 12.665 2.58588L13.031 4.59188C13.0571 4.73451 13.1138 4.86976 13.1974 4.98826C13.2809 5.10677 13.3892 5.20569 13.5148 5.27818C13.6403 5.35066 13.7802 5.39498 13.9246 5.40805C14.069 5.42112 14.2145 5.40264 14.351 5.35388L16.27 4.66788C16.3634 4.63445 16.4645 4.62953 16.5607 4.65375C16.6568 4.67797 16.7436 4.73022 16.81 4.80388C17.614 5.69306 18.2207 6.7424 18.59 7.88288C18.6204 7.97718 18.622 8.07838 18.5948 8.17363C18.5676 8.26889 18.5126 8.3539 18.437 8.41788L16.882 9.73788C16.7715 9.83176 16.6828 9.94853 16.622 10.0801C16.5611 10.2117 16.5296 10.3549 16.5296 10.4999C16.5296 10.6448 16.5611 10.7881 16.622 10.9197C16.6828 11.0512 16.7715 11.168 16.882 11.2619L18.437 12.5819C18.5125 12.646 18.5672 12.7311 18.5943 12.8263C18.6213 12.9215 18.6195 13.0227 18.589 13.1169C18.2198 14.2577 17.6132 15.3074 16.809 16.1969C16.7425 16.2704 16.6557 16.3224 16.5595 16.3465C16.4634 16.3705 16.3623 16.3654 16.269 16.3319L14.351 15.6459C14.2145 15.5971 14.069 15.5786 13.9246 15.5917C13.7802 15.6048 13.6403 15.6491 13.5148 15.7216C13.3892 15.7941 13.2809 15.893 13.1974 16.0115C13.1138 16.13 13.0571 16.2653 13.031 16.4079L12.665 18.4149C12.6471 18.5124 12.6007 18.6023 12.5317 18.6734C12.4626 18.7444 12.3739 18.7933 12.277 18.8139C11.1055 19.0635 9.89453 19.0635 8.72301 18.8139C8.62594 18.7932 8.53721 18.7442 8.46811 18.6729C8.39902 18.6017 8.35268 18.5115 8.33501 18.4139L7.96901 16.4079C7.94294 16.2653 7.88618 16.13 7.80265 16.0115C7.71911 15.893 7.61081 15.7941 7.48524 15.7216C7.35968 15.6491 7.21985 15.6048 7.07546 15.5917C6.93106 15.5786 6.78555 15.5971 6.64901 15.6459L4.73101 16.3319C4.63766 16.3653 4.53647 16.3702 4.44032 16.346C4.34417 16.3218 4.25739 16.2695 4.19101 16.1959C3.38695 15.3067 2.78031 14.2574 2.41101 13.1169C2.38052 13.0227 2.37869 12.9215 2.40575 12.8263C2.43281 12.7311 2.48754 12.646 2.56301 12.5819L4.11801 11.2619C4.22847 11.168 4.3172 11.0512 4.37806 10.9197C4.43891 10.7881 4.47043 10.6448 4.47043 10.4999C4.47043 10.3549 4.43891 10.2117 4.37806 10.0801C4.3172 9.94853 4.22847 9.83176 4.11801 9.73788L2.56301 8.41788C2.48754 8.35378 2.43281 8.26871 2.40575 8.17347C2.37869 8.07822 2.38052 7.97709 2.41101 7.88288ZM3.47101 7.87688L4.76501 8.97488C4.98628 9.16264 5.16404 9.39629 5.28596 9.65963C5.40788 9.92297 5.47103 10.2097 5.47103 10.4999C5.47103 10.7901 5.40788 11.0768 5.28596 11.3401C5.16404 11.6035 4.98628 11.8371 4.76501 12.0249L3.47201 13.1229C3.76401 13.9049 4.18501 14.6329 4.71601 15.2749L6.31201 14.7049C6.58516 14.6074 6.87626 14.5704 7.16511 14.5966C7.45396 14.6228 7.73366 14.7116 7.9848 14.8566C8.23595 15.0017 8.45254 15.1997 8.61955 15.4368C8.78657 15.6739 8.9 15.9445 8.95201 16.2299L9.25701 17.8979C10.08 18.0351 10.92 18.0351 11.743 17.8979L12.047 16.2279C12.0988 15.9423 12.2121 15.6715 12.3792 15.4342C12.5462 15.1969 12.763 14.9989 13.0143 14.8538C13.2657 14.7088 13.5456 14.6203 13.8346 14.5944C14.1237 14.5685 14.4149 14.6058 14.688 14.7039L16.284 15.2749C16.816 14.6319 17.2368 13.9045 17.529 13.1229L16.235 12.0249C16.0134 11.8373 15.8354 11.6037 15.7133 11.3404C15.5912 11.077 15.5279 10.7902 15.5279 10.4999C15.5279 10.2096 15.5912 9.92277 15.7133 9.6594C15.8354 9.39604 16.0134 9.16244 16.235 8.97488L17.529 7.87688C17.2368 7.09521 16.816 6.36786 16.284 5.72488L14.688 6.29488C14.4149 6.3924 14.1239 6.42936 13.8351 6.40322C13.5463 6.37708 13.2667 6.28845 13.0155 6.14347C12.7644 5.9985 12.5478 5.80066 12.3807 5.56365C12.2137 5.32664 12.1001 5.05613 12.048 4.77088L11.743 3.10188C10.92 2.96461 10.08 2.96461 9.25701 3.10188L8.95301 4.77088C8.90101 5.05622 8.78757 5.32684 8.62055 5.56396C8.45354 5.80109 8.23695 5.99905 7.9858 6.14413C7.73466 6.28921 7.45496 6.37792 7.16611 6.40413C6.87726 6.43033 6.58616 6.39339 6.31301 6.29588L4.71601 5.72488C4.18439 6.36793 3.76293 7.09528 3.47101 7.87688ZM8.00201 10.4999C8.00201 9.83684 8.2654 9.20096 8.73424 8.73212C9.20308 8.26328 9.83896 7.99988 10.502 7.99988C11.165 7.99988 11.8009 8.26328 12.2698 8.73212C12.7386 9.20096 13.002 9.83684 13.002 10.4999C13.002 11.1629 12.7386 11.7988 12.2698 12.2676C11.8009 12.7365 11.165 12.9999 10.502 12.9999C9.83896 12.9999 9.20308 12.7365 8.73424 12.2676C8.2654 11.7988 8.00201 11.1629 8.00201 10.4999ZM9.00201 10.4999C9.00201 10.8977 9.16004 11.2792 9.44135 11.5605C9.72265 11.8418 10.1042 11.9999 10.502 11.9999C10.8998 11.9999 11.2814 11.8418 11.5627 11.5605C11.844 11.2792 12.002 10.8977 12.002 10.4999C12.002 10.1021 11.844 9.72053 11.5627 9.43922C11.2814 9.15792 10.8998 8.99988 10.502 8.99988C10.1042 8.99988 9.72265 9.15792 9.44135 9.43922C9.16004 9.72053 9.00201 10.1021 9.00201 10.4999Z" fill="#6F6F6F"/>
</svg>
