<svg width="21" height="21" viewBox="0 0 21 21" fill="none" xmlns="http://www.w3.org/2000/svg">
<path d="M12.5 2.5C13.0304 2.5 13.5391 2.71071 13.9142 3.08579C14.2893 3.46086 14.5 3.96957 14.5 4.5V12.5H15.5V4.768C15.804 4.94353 16.0565 5.196 16.232 5.50003C16.4076 5.80406 16.5 6.14894 16.5 6.5V12.768C16.804 12.9435 17.0565 13.196 17.232 13.5C17.4076 13.8041 17.5 14.1489 17.5 14.5V16C17.5 16.663 17.2366 17.2989 16.7678 17.7678C16.2989 18.2366 15.663 18.5 15 18.5H6C5.33696 18.5 4.70107 18.2366 4.23223 17.7678C3.76339 17.2989 3.5 16.663 3.5 16V9.5C3.50001 9.14894 3.59243 8.80406 3.76796 8.50003C3.9435 8.196 4.19597 7.94353 4.5 7.768V4.5C4.5 3.96957 4.71071 3.46086 5.08579 3.08579C5.46086 2.71071 5.96957 2.5 6.5 2.5H12.5ZM5.5 7.5H7.379C7.90939 7.50011 8.41801 7.7109 8.793 8.086L12.914 12.207C13.0719 12.3651 13.2782 12.4658 13.5 12.493V4.5C13.5 4.23478 13.3946 3.98043 13.2071 3.79289C13.0196 3.60536 12.7652 3.5 12.5 3.5H6.5C6.23478 3.5 5.98043 3.60536 5.79289 3.79289C5.60536 3.98043 5.5 4.23478 5.5 4.5V7.5ZM4.5 9.5V16C4.5 16.3978 4.65804 16.7794 4.93934 17.0607C5.22064 17.342 5.60218 17.5 6 17.5H15C15.3978 17.5 15.7794 17.342 16.0607 17.0607C16.342 16.7794 16.5 16.3978 16.5 16V14.5C16.5 14.2348 16.3946 13.9804 16.2071 13.7929C16.0196 13.6054 15.7652 13.5 15.5 13.5H13.621C13.0906 13.4999 12.582 13.2891 12.207 12.914L8.086 8.793C7.89851 8.60545 7.6442 8.50006 7.379 8.5H5.5C5.23478 8.5 4.98043 8.60536 4.79289 8.79289C4.60536 8.98043 4.5 9.23478 4.5 9.5Z" fill="#6F6F6F"/>
</svg>
