<svg width="21" height="21" viewBox="0 0 21 21" fill="none" xmlns="http://www.w3.org/2000/svg">
<path d="M10.5 19.25C5.675 19.25 1.75 15.325 1.75 10.5C1.75 5.675 5.675 1.75 10.5 1.75C15.325 1.75 19.25 5.675 19.25 10.5C19.25 15.325 15.325 19.25 10.5 19.25ZM10.5 3C6.3625 3 3 6.3625 3 10.5C3 14.6375 6.3625 18 10.5 18C14.6375 18 18 14.6375 18 10.5C18 6.3625 14.6375 3 10.5 3Z" fill="#6F6F6F"/>
<path d="M10.5 6.125C9.1125 6.125 8 7.2375 8 8.625H9.25C9.25 7.9375 9.8125 7.375 10.5 7.375C11.1875 7.375 11.75 7.9375 11.75 8.625C11.75 9.875 9.875 9.725 9.875 11.75H11.125C11.125 10.35 13 10.1875 13 8.625C13 7.2375 11.8875 6.125 10.5 6.125Z" fill="#6F6F6F"/>
<path d="M10.5001 15.0251C10.9281 15.0251 11.2751 14.6781 11.2751 14.2501C11.2751 13.8221 10.9281 13.4751 10.5001 13.4751C10.0721 13.4751 9.7251 13.8221 9.7251 14.2501C9.7251 14.6781 10.0721 15.0251 10.5001 15.0251Z" fill="#6F6F6F"/>
<path d="M8.625 9.25C8.97018 9.25 9.25 8.97018 9.25 8.625C9.25 8.27982 8.97018 8 8.625 8C8.27982 8 8 8.27982 8 8.625C8 8.97018 8.27982 9.25 8.625 9.25Z" fill="#6F6F6F"/>
<path d="M10.5 12.375C10.8452 12.375 11.125 12.0952 11.125 11.75C11.125 11.4048 10.8452 11.125 10.5 11.125C10.1548 11.125 9.875 11.4048 9.875 11.75C9.875 12.0952 10.1548 12.375 10.5 12.375Z" fill="#6F6F6F"/>
</svg>
