<svg width="21" height="21" viewBox="0 0 21 21" fill="none" xmlns="http://www.w3.org/2000/svg">
<path fill-rule="evenodd" clip-rule="evenodd" d="M12.4884 10.7779C12.3735 10.4529 12.1606 10.1716 11.8792 9.97255C11.5977 9.77354 11.2615 9.66667 10.9167 9.66667V9.25H10.0834V9.66667C9.64139 9.66667 9.21746 9.84226 8.9049 10.1548C8.59234 10.4674 8.41675 10.8913 8.41675 11.3333C8.41675 11.7754 8.59234 12.1993 8.9049 12.5118C9.21746 12.8244 9.64139 13 10.0834 13V14.6667C9.72091 14.6667 9.41217 14.4354 9.29717 14.1112C9.2801 14.0582 9.25258 14.0091 9.21622 13.9669C9.17986 13.9247 9.1354 13.8902 9.08548 13.8655C9.03556 13.8408 8.98118 13.8263 8.92557 13.8229C8.86996 13.8196 8.81424 13.8274 8.76171 13.846C8.70918 13.8645 8.66091 13.8935 8.61974 13.931C8.57858 13.9685 8.54536 14.014 8.52206 14.0646C8.49875 14.1152 8.48583 14.1699 8.48406 14.2256C8.48229 14.2813 8.49171 14.3368 8.51175 14.3888C8.62668 14.7137 8.83953 14.9951 9.121 15.1941C9.40246 15.3931 9.7387 15.5 10.0834 15.5V15.9167H10.9167V15.5C11.3588 15.5 11.7827 15.3244 12.0953 15.0118C12.4078 14.6993 12.5834 14.2754 12.5834 13.8333C12.5834 13.3913 12.4078 12.9674 12.0953 12.6548C11.7827 12.3423 11.3588 12.1667 10.9167 12.1667V10.5C11.0891 10.5 11.2572 10.5533 11.3979 10.6528C11.5387 10.7523 11.6451 10.8929 11.7026 11.0554C11.7394 11.1596 11.8161 11.2449 11.9158 11.2926C11.9651 11.3162 12.0187 11.3299 12.0733 11.3328C12.128 11.3357 12.1826 11.3278 12.2342 11.3096C12.2858 11.2914 12.3334 11.2632 12.374 11.2266C12.4147 11.19 12.4478 11.1458 12.4714 11.0964C12.495 11.047 12.5087 10.9935 12.5116 10.9388C12.5145 10.8842 12.5066 10.8295 12.4884 10.7779ZM10.0834 10.5C9.8624 10.5 9.65044 10.5878 9.49416 10.7441C9.33788 10.9004 9.25008 11.1123 9.25008 11.3333C9.25008 11.5543 9.33788 11.7663 9.49416 11.9226C9.65044 12.0789 9.8624 12.1667 10.0834 12.1667V10.5ZM10.9167 14.6667C11.1378 14.6667 11.3497 14.5789 11.506 14.4226C11.6623 14.2663 11.7501 14.0543 11.7501 13.8333C11.7501 13.6123 11.6623 13.4004 11.506 13.2441C11.3497 13.0878 11.1378 13 10.9167 13V14.6667Z" fill="#6F6F6F"/>
<path fill-rule="evenodd" clip-rule="evenodd" d="M5.98049 4.09208C7.00299 3.59167 8.68049 3 10.5163 3C12.3138 3 13.9472 3.56708 14.9642 4.06083L15.0217 4.08875C15.3284 4.24042 15.5759 4.38375 15.7501 4.5L14.2109 6.75C17.7592 10.3775 20.5001 17.9988 10.5163 17.9988C0.532573 17.9988 3.19966 10.5158 6.77882 6.75L5.24966 4.5C5.36757 4.42292 5.51716 4.33333 5.69549 4.23833C5.78382 4.19083 5.87882 4.14167 5.98049 4.09208ZM13.2217 6.72042L14.4538 4.91917C13.308 5.00167 11.9447 5.27083 10.6322 5.65083C9.69466 5.92167 8.65299 5.88042 7.68841 5.7025C7.44534 5.65744 7.20394 5.60379 6.96466 5.54167L7.76466 6.71958C9.47924 7.33 11.5067 7.33 13.2217 6.72042ZM7.28341 7.42917C9.28966 8.20417 11.7009 8.20417 13.7072 7.42833C14.5446 8.31112 15.2451 9.31433 15.7855 10.4046C16.3488 11.5538 16.6555 12.7025 16.6055 13.6925C16.5572 14.6479 16.1813 15.4642 15.323 16.0708C14.4284 16.7029 12.9238 17.1654 10.5159 17.1654C8.10549 17.1654 6.59382 16.7108 5.69091 16.0858C4.82632 15.4871 4.44674 14.6817 4.39299 13.7392C4.33674 12.76 4.63674 11.6171 5.19799 10.46C5.73341 9.35667 6.48049 8.29458 7.28341 7.42917ZM6.80424 4.63167C7.13757 4.73083 7.48591 4.81708 7.83924 4.8825C8.73507 5.0475 9.63341 5.07167 10.4001 4.84958C11.2935 4.58931 12.2022 4.38461 13.1209 4.23667C12.3542 4.00583 11.4576 3.83333 10.5159 3.83333C9.08049 3.83333 7.74174 4.23375 6.80424 4.63167Z" fill="#6F6F6F"/>
</svg>
