<svg width="21" height="21" viewBox="0 0 21 21" fill="none" xmlns="http://www.w3.org/2000/svg">
<path d="M10.5001 10.5H16.3334M16.3334 10.5L13.8334 13M16.3334 10.5L13.8334 8M16.3334 5.5V4.66667C16.3334 4.22464 16.1578 3.80072 15.8453 3.48816C15.5327 3.17559 15.1088 3 14.6667 3H6.33341C5.89139 3 5.46746 3.17559 5.1549 3.48816C4.84234 3.80072 4.66675 4.22464 4.66675 4.66667V16.3333C4.66675 16.7754 4.84234 17.1993 5.1549 17.5118C5.46746 17.8244 5.89139 18 6.33341 18H14.6667C15.1088 18 15.5327 17.8244 15.8453 17.5118C16.1578 17.1993 16.3334 16.7754 16.3334 16.3333V15.5" stroke="#6F6F6F" stroke-width="1.5" stroke-linecap="round" stroke-linejoin="round"/>
</svg>
