<svg width="21" height="21" viewBox="0 0 21 21" fill="none" xmlns="http://www.w3.org/2000/svg">
<path d="M14.6667 16.7499C14.6667 15.3691 12.8008 14.2499 10.5 14.2499C8.19917 14.2499 6.33333 15.3691 6.33333 16.7499M18 14.2499C18 13.2249 16.9717 12.3441 15.5 11.9583M3 14.2499C3 13.2249 4.02833 12.3441 5.5 11.9583M15.5 8.61325C15.7469 8.395 15.9482 8.13008 16.0923 7.83375C16.2365 7.53742 16.3206 7.21552 16.3399 6.88655C16.3592 6.55759 16.3132 6.22806 16.2047 5.91692C16.0962 5.60577 15.9272 5.31915 15.7075 5.07354C15.4878 4.82793 15.2218 4.62817 14.9246 4.48576C14.6274 4.34335 14.305 4.26109 13.976 4.24371C13.6469 4.22634 13.3176 4.27419 13.0071 4.38452C12.6966 4.49485 12.411 4.66548 12.1667 4.88659M5.5 8.61325C5.01025 8.17004 4.7158 7.55103 4.68097 6.89142C4.64615 6.23181 4.87377 5.58523 5.31413 5.09291C5.75449 4.60059 6.37178 4.30255 7.03118 4.26389C7.69057 4.22523 8.33846 4.4491 8.83333 4.88659M10.5 11.7499C9.83696 11.7499 9.20107 11.4865 8.73223 11.0177C8.26339 10.5488 8 9.91296 8 9.24992C8 8.58688 8.26339 7.95099 8.73223 7.48215C9.20107 7.01331 9.83696 6.74992 10.5 6.74992C11.163 6.74992 11.7989 7.01331 12.2678 7.48215C12.7366 7.95099 13 8.58688 13 9.24992C13 9.91296 12.7366 10.5488 12.2678 11.0177C11.7989 11.4865 11.163 11.7499 10.5 11.7499Z" stroke="#6F6F6F" stroke-width="1.5" stroke-linecap="round" stroke-linejoin="round"/>
</svg>
