<svg width="21" height="21" viewBox="0 0 21 21" fill="none" xmlns="http://www.w3.org/2000/svg">
<path d="M9.69167 2.65834C9.91757 2.46704 10.204 2.36206 10.5 2.36206C10.796 2.36206 11.0824 2.46704 11.3083 2.65834L17.5583 7.96084C17.6967 8.07817 17.8079 8.22422 17.8842 8.38884C17.9605 8.55347 18 8.73273 18 8.91417V16.75C18 17.0815 17.8683 17.3995 17.6339 17.6339C17.3995 17.8683 17.0815 18 16.75 18H11.9583C11.7926 18 11.6336 17.9342 11.5164 17.8169C11.3992 17.6997 11.3333 17.5408 11.3333 17.375V12.1667H9.66667V17.375C9.66667 17.5408 9.60082 17.6997 9.48361 17.8169C9.3664 17.9342 9.20743 18 9.04167 18H4.25C3.91848 18 3.60054 17.8683 3.36612 17.6339C3.1317 17.3995 3 17.0815 3 16.75V8.91417C3 8.5475 3.16167 8.19834 3.44167 7.96084L9.69167 2.65834ZM10.5 3.61167L4.25 8.91417V16.75H8.41667V11.5417C8.41667 11.3759 8.48251 11.2169 8.59973 11.0997C8.71694 10.9825 8.87591 10.9167 9.04167 10.9167H11.9583C12.1241 10.9167 12.2831 10.9825 12.4003 11.0997C12.5175 11.2169 12.5833 11.3759 12.5833 11.5417V16.75H16.75V8.91417L10.5 3.61167Z" fill="#095256"/>
</svg>
