<svg width="18" height="16" viewBox="0 0 18 16" fill="none" xmlns="http://www.w3.org/2000/svg">
<path d="M4.00284 2.11786V3H3.2857C2.52794 3 1.80121 3.30102 1.2654 3.83684C0.729578 4.37266 0.428558 5.09939 0.428558 5.85715V10.8571C0.428558 11.4255 0.654323 11.9705 1.05619 12.3724C1.45805 12.7742 2.00309 13 2.57142 13H3.99999V13.7143C3.99999 14.2826 4.22575 14.8277 4.62761 15.2295C5.02948 15.6314 5.57452 15.8571 6.14284 15.8571H11.8571C12.4255 15.8571 12.9705 15.6314 13.3724 15.2295C13.7742 14.8277 14 14.2826 14 13.7143V13H15.4286C15.9969 13 16.5419 12.7742 16.9438 12.3724C17.3456 11.9705 17.5714 11.4255 17.5714 10.8571V5.85715C17.5714 5.09939 17.2704 4.37266 16.7346 3.83684C16.1988 3.30102 15.472 3 14.7143 3H14V2.10857C14 1.85038 13.9491 1.59472 13.8502 1.35621C13.7513 1.11771 13.6064 0.901042 13.4237 0.718604C13.2409 0.536166 13.0241 0.391537 12.7854 0.292991C12.5468 0.194444 12.291 0.143914 12.0328 0.144289L5.96427 0.153575C5.44381 0.154332 4.94492 0.361617 4.57716 0.72991C4.2094 1.0982 4.00284 1.59739 4.00284 2.11786ZM14 11.9286V10.1429C14 9.57454 13.7742 9.0295 13.3724 8.62763C12.9705 8.22577 12.4255 8 11.8571 8H6.14284C5.57452 8 5.02948 8.22577 4.62761 8.62763C4.22575 9.0295 3.99999 9.57454 3.99999 10.1429V11.9286H2.57142C2.28725 11.9286 2.01473 11.8157 1.8138 11.6148C1.61287 11.4138 1.49999 11.1413 1.49999 10.8571V5.85715C1.49999 5.38355 1.68812 4.92934 2.02301 4.59446C2.3579 4.25957 2.8121 4.07143 3.2857 4.07143H14.7143C15.1879 4.07143 15.6421 4.25957 15.977 4.59446C16.3118 4.92934 16.5 5.38355 16.5 5.85715V10.8571C16.5 11.1413 16.3871 11.4138 16.1862 11.6148C15.9852 11.8157 15.7127 11.9286 15.4286 11.9286H14ZM12.9286 2.10857V3H5.07427V2.11786C5.07427 1.625 5.47284 1.22572 5.9657 1.225L12.0343 1.21572C12.1516 1.21553 12.2679 1.23849 12.3764 1.28327C12.4849 1.32806 12.5835 1.3938 12.6665 1.47672C12.7496 1.55965 12.8155 1.65814 12.8605 1.76656C12.9054 1.87498 12.9286 1.9912 12.9286 2.10857ZM6.14284 9.07143H11.8571C12.1413 9.07143 12.4138 9.18431 12.6147 9.38525C12.8157 9.58618 12.9286 9.8587 12.9286 10.1429V13.7143C12.9286 13.9985 12.8157 14.271 12.6147 14.4719C12.4138 14.6728 12.1413 14.7857 11.8571 14.7857H6.14284C5.85868 14.7857 5.58616 14.6728 5.38523 14.4719C5.1843 14.271 5.07142 13.9985 5.07142 13.7143V10.1429C5.07142 9.8587 5.1843 9.58618 5.38523 9.38525C5.58616 9.18431 5.85868 9.07143 6.14284 9.07143Z" fill="#095256"/>
</svg>
