<svg width="34" height="32" viewBox="0 0 34 32" fill="none" xmlns="http://www.w3.org/2000/svg">
<path d="M26.5 29.2402C26.7333 29.2402 26.9258 29.1644 27.0775 29.0127C27.2315 28.8599 27.3085 28.6668 27.3085 28.4335C27.3085 28.2002 27.2321 28.0071 27.0792 27.8543C26.9264 27.7014 26.7333 27.625 26.5 27.625C26.2667 27.625 26.0742 27.7008 25.9225 27.8525C25.7685 28.0065 25.6915 28.2002 25.6915 28.4335C25.6915 28.6668 25.7679 28.8593 25.9208 29.011C26.0736 29.1638 26.2667 29.2402 26.5 29.2402ZM25.8263 26.0098H27.1737V20.7598H25.8263V26.0098ZM2 25.6737V26.75V7.5V25.6737ZM3.07625 28.5C2.27125 28.5 1.59925 28.2305 1.06025 27.6915C0.520083 27.1513 0.25 26.4788 0.25 25.6737V8.57625C0.25 7.77125 0.520083 7.09925 1.06025 6.56025C1.59925 6.02008 2.27125 5.75 3.07625 5.75H10.75V3.32625C10.75 2.52125 11.0201 1.84925 11.5603 1.31025C12.0993 0.770083 12.7712 0.5 13.5763 0.5H18.4237C19.2288 0.5 19.9013 0.770083 20.4415 1.31025C20.9805 1.84925 21.25 2.52125 21.25 3.32625V5.75H28.9237C29.7288 5.75 30.4008 6.02008 30.9398 6.56025C31.4799 7.09925 31.75 7.77125 31.75 8.57625V15.9227C31.4723 15.7466 31.1929 15.5926 30.9118 15.4607C30.6318 15.3301 30.3278 15.2076 30 15.0932V8.5745C30 8.26067 29.8991 8.00283 29.6973 7.801C29.4954 7.59917 29.2376 7.49883 28.9237 7.5H3.07625C2.76242 7.5 2.50458 7.60092 2.30275 7.80275C2.10092 8.00458 2 8.26242 2 8.57625V25.6737C2 25.9876 2.10092 26.2454 2.30275 26.4473C2.50458 26.6491 2.76242 26.75 3.07625 26.75H16.1312C16.1966 27.0708 16.2666 27.3712 16.3412 27.6512C16.4147 27.9312 16.504 28.2142 16.609 28.5H3.07625ZM12.5 5.75H19.5V3.32625C19.5 3.01242 19.3991 2.75458 19.1973 2.55275C18.9954 2.35092 18.7376 2.25 18.4237 2.25H13.5763C13.2624 2.25 13.0046 2.35092 12.8028 2.55275C12.6009 2.75458 12.5 3.01242 12.5 3.32625V5.75ZM26.5 32C24.5505 32 22.8962 31.321 21.537 29.963C20.1778 28.605 19.4988 26.9507 19.5 25C19.5 23.0505 20.179 21.3962 21.537 20.037C22.895 18.6778 24.5493 17.9988 26.5 18C28.4495 18 30.1038 18.679 31.463 20.037C32.8222 21.395 33.5012 23.0493 33.5 25C33.5 26.9495 32.821 28.6038 31.463 29.963C30.105 31.3222 28.4507 32.0012 26.5 32Z" fill="#095256"/>
</svg>
