<svg width="33" height="29" viewBox="0 0 33 29" fill="none" xmlns="http://www.w3.org/2000/svg">
<path d="M25.25 27.6251C25.25 24.7253 21.3317 22.3751 16.5 22.3751C11.6683 22.3751 7.75 24.7253 7.75 27.6251M32.25 22.3751C32.25 20.2226 30.0905 18.3728 27 17.5626M0.75 22.3751C0.75 20.2226 2.9095 18.3728 6 17.5626M27 10.5381C27.5185 10.0797 27.9412 9.52342 28.2439 8.90112C28.5466 8.27883 28.7232 7.60283 28.7637 6.91201C28.8042 6.22119 28.7078 5.52917 28.4799 4.87577C28.252 4.22237 27.8972 3.62046 27.4358 3.10468C26.9745 2.58889 26.4157 2.1694 25.7917 1.87034C25.1676 1.57127 24.4906 1.39853 23.7995 1.36204C23.1085 1.32555 22.4171 1.42604 21.765 1.65774C21.1129 1.88943 20.5131 2.24774 20 2.71208M6 10.5381C4.97152 9.60734 4.35318 8.3074 4.28004 6.92223C4.20691 5.53706 4.68493 4.17923 5.60968 3.14536C6.53443 2.11149 7.83075 1.4856 9.21547 1.40442C10.6002 1.32324 11.9608 1.79335 13 2.71208M16.5 17.1251C15.1076 17.1251 13.7723 16.572 12.7877 15.5874C11.8031 14.6028 11.25 13.2675 11.25 11.8751C11.25 10.4827 11.8031 9.14733 12.7877 8.16277C13.7723 7.1782 15.1076 6.62508 16.5 6.62508C17.8924 6.62508 19.2277 7.1782 20.2123 8.16277C21.1969 9.14733 21.75 10.4827 21.75 11.8751C21.75 13.2675 21.1969 14.6028 20.2123 15.5874C19.2277 16.572 17.8924 17.1251 16.5 17.1251Z" stroke="#095256" stroke-width="1.5" stroke-linecap="round" stroke-linejoin="round"/>
</svg>
