<svg width="33" height="31" viewBox="0 0 33 31" fill="none" xmlns="http://www.w3.org/2000/svg">
<path d="M29.543 26.1977C30.3645 25.6516 30.9884 24.8555 31.3224 23.9274C31.6564 22.9992 31.6828 21.9881 31.3975 21.0438C31.1123 20.0994 30.5307 19.272 29.7387 18.6839C28.9467 18.0958 27.9865 17.7782 27 17.7782C26.0135 17.7782 25.0533 18.0958 24.2613 18.6839C23.4693 19.272 22.8877 20.0994 22.6025 21.0438C22.3172 21.9881 22.3436 22.9992 22.6776 23.9274C23.0116 24.8555 23.6355 25.6516 24.457 26.1977C23.6452 26.5554 22.9237 27.0902 22.3454 27.7631C21.7671 28.4359 21.3467 29.2295 21.1151 30.0859C21.0705 30.2541 21.0946 30.4331 21.182 30.5835C21.2693 30.734 21.4129 30.8435 21.581 30.8882C21.6344 30.9033 21.6896 30.911 21.7451 30.9112C21.8905 30.9111 22.0317 30.8627 22.1467 30.7736C22.2616 30.6845 22.3436 30.5598 22.38 30.419C22.9198 28.3879 24.8163 26.9737 26.9951 26.9737C29.1738 26.9737 31.0704 28.3928 31.6102 30.419C31.6304 30.5043 31.6675 30.5846 31.7193 30.6553C31.771 30.726 31.8365 30.7856 31.9117 30.8307C31.9869 30.8757 32.0703 30.9052 32.1571 30.9174C32.2439 30.9296 32.3322 30.9244 32.4169 30.9019C32.5016 30.8794 32.581 30.8402 32.6503 30.7866C32.7196 30.733 32.7775 30.666 32.8205 30.5896C32.8635 30.5133 32.8908 30.4291 32.9007 30.342C32.9107 30.2549 32.9031 30.1667 32.8784 30.0827C32.6472 29.2274 32.2277 28.4347 31.6506 27.7625C31.0735 27.0903 30.3534 26.5556 29.543 26.1977ZM23.7188 22.375C23.7188 21.726 23.9112 21.0916 24.2717 20.552C24.6323 20.0124 25.1447 19.5919 25.7443 19.3435C26.3439 19.0952 27.0036 19.0302 27.6401 19.1568C28.2766 19.2834 28.8613 19.5959 29.3202 20.0548C29.7791 20.5137 30.0916 21.0984 30.2182 21.7349C30.3448 22.3714 30.2798 23.0311 30.0315 23.6307C29.7831 24.2303 29.3626 24.7427 28.823 25.1033C28.2834 25.4638 27.649 25.6562 27 25.6562C26.1298 25.6562 25.2952 25.3105 24.6798 24.6952C24.0645 24.0798 23.7188 23.2452 23.7188 22.375ZM30.9375 5.96875H16.7723L12.0982 1.29461C11.7291 0.925893 11.2287 0.718774 10.707 0.71875H2.0625C1.54036 0.71875 1.0396 0.926171 0.670384 1.29538C0.301171 1.6646 0.09375 2.16536 0.09375 2.6875V26.4126C0.0941836 26.9078 0.290975 27.3826 0.640971 27.7329C0.990966 28.0832 1.4656 28.2804 1.96078 28.2812H15.2794C15.4534 28.2812 15.6203 28.2121 15.7434 28.089C15.8665 27.966 15.9356 27.799 15.9356 27.625C15.9356 27.451 15.8665 27.284 15.7434 27.161C15.6203 27.0379 15.4534 26.9688 15.2794 26.9688H1.96078C1.81356 26.9683 1.67252 26.9095 1.56857 26.8053C1.46462 26.701 1.40625 26.5598 1.40625 26.4126V7.28125H30.9375C31.1115 7.28125 31.2785 7.35039 31.4015 7.47346C31.5246 7.59653 31.5938 7.76345 31.5938 7.9375V13.1875C31.5938 13.3615 31.6629 13.5285 31.786 13.6515C31.909 13.7746 32.076 13.8438 32.25 13.8438C32.424 13.8438 32.591 13.7746 32.714 13.6515C32.8371 13.5285 32.9062 13.3615 32.9062 13.1875V7.9375C32.9062 7.41536 32.6988 6.9146 32.3296 6.54538C31.9604 6.17617 31.4596 5.96875 30.9375 5.96875ZM2.0625 2.03125H10.707C10.8805 2.03155 11.0468 2.10056 11.1696 2.2232L14.9152 5.96875H1.40625V2.6875C1.40625 2.51345 1.47539 2.34653 1.59846 2.22346C1.72153 2.10039 1.88845 2.03125 2.0625 2.03125Z" fill="#095256"/>
</svg>
