<svg width="13" height="7" viewBox="0 0 13 7" fill="none" xmlns="http://www.w3.org/2000/svg">
<path d="M12.2867 0.361667C12.2275 0.219129 12.1142 0.10586 11.9717 0.0466666C11.9016 0.0167761 11.8263 0.000921659 11.75 0H8.83338C8.67867 0 8.5303 0.0614583 8.4209 0.170854C8.3115 0.280251 8.25005 0.428624 8.25005 0.583333C8.25005 0.738043 8.3115 0.886416 8.4209 0.995812C8.5303 1.10521 8.67867 1.16667 8.83338 1.16667H10.3442L7.08338 4.4275L5.16421 2.5025C5.10998 2.44782 5.04547 2.40443 4.97438 2.37481C4.9033 2.3452 4.82705 2.32995 4.75005 2.32995C4.67304 2.32995 4.59679 2.3452 4.52571 2.37481C4.45462 2.40443 4.39011 2.44782 4.33588 2.5025L0.835879 6.0025C0.781204 6.05673 0.737808 6.12125 0.708192 6.19233C0.678577 6.26341 0.66333 6.33966 0.66333 6.41667C0.66333 6.49367 0.678577 6.56992 0.708192 6.641C0.737808 6.71209 0.781204 6.7766 0.835879 6.83083C0.890107 6.88551 0.954625 6.92891 1.02571 6.95852C1.09679 6.98814 1.17304 7.00338 1.25005 7.00338C1.32705 7.00338 1.4033 6.98814 1.47438 6.95852C1.54547 6.92891 1.60998 6.88551 1.66421 6.83083L4.75005 3.73917L6.66921 5.66417C6.72344 5.71884 6.78796 5.76224 6.85904 5.79185C6.93013 5.82147 7.00637 5.83672 7.08338 5.83672C7.16039 5.83672 7.23663 5.82147 7.30772 5.79185C7.3788 5.76224 7.44332 5.71884 7.49755 5.66417L11.1667 1.98917V3.5C11.1667 3.65471 11.2282 3.80308 11.3376 3.91248C11.447 4.02187 11.5953 4.08333 11.75 4.08333C11.9048 4.08333 12.0531 4.02187 12.1625 3.91248C12.2719 3.80308 12.3334 3.65471 12.3334 3.5V0.583333C12.3325 0.507105 12.3166 0.431796 12.2867 0.361667Z" fill="#015601"/>
</svg>
